<mxfile host="app.diagrams.net" modified="2021-10-30T17:22:16.577Z" agent="5.0 (X11)" etag="fD5bS1_gJ0Ot3hcGIqI7" version="15.6.2" type="github">
  <diagram id="Hkxajxl0VmwnhSN-7fma" name="Page-1">
    <mxGraphModel dx="1422" dy="800" grid="1" gridSize="10" guides="1" tooltips="1" connect="1" arrows="1" fold="1" page="1" pageScale="1" pageWidth="1100" pageHeight="850" math="0" shadow="0">
      <root>
        <mxCell id="0" />
        <mxCell id="1" parent="0" />
      </root>
    </mxGraphModel>
  </diagram>
</mxfile>
